<svg xmlns="http://www.w3.org/2000/svg" xmlns:xlink="http://www.w3.org/1999/xlink" xmlns:lucid="lucid" width="1080" height="348"><g transform="translate(-340 -205)" lucid:page-tab-id="0_0"><path d="M1120 250.78a6 6 0 0 1 6-6h248a6 6 0 0 1 6 6v256.44a6 6 0 0 1-6 6h-248a6 6 0 0 1-6-6z" fill="#cfe4ff"/><path d="M1134.82 244.85h9.77m4.87 0h9.76m4.88 0h9.77m4.88 0l9.77-.02m4.88 0h9.76m4.88 0h9.76m4.88 0h9.77m4.88 0h9.76m4.87-.02h9.76m4.88 0h9.78m4.88 0h9.76m4.88 0h9.76m4.9 0h9.75m4.9 0h9.75m4.88 0h9.76m4.88-.02h9.76m4.88 0h4.88l.94.07.9.22.88.36.8.5.72.6.6.72.5.8.37.87.23.92v5.05m0 5.03v10.1m0 5.04v10.1m0 5.04v10.1m0 5.05v10.1m.02 5.04v10.1m0 5.03v10.1m0 5.04v10.1m0 5.04V376m0 5.05l.02 10.1m0 5.04v10.1m0 5.03v10.1m0 5.04v10.1m0 5.04v10.1m.02 5.05v10.1m0 5.05V482m0 5.04v10.1m0 5.04v5.04l-.07.94-.22.92-.35.87-.5.8-.6.7-.72.63-.8.5-.88.35-.9.22h-4.9m-4.87 0h-9.77m-4.87 0h-9.76m-4.88 0h-9.77m-4.88 0l-9.77.02m-4.88 0h-9.76m-4.88 0h-9.76m-4.88 0h-9.77m-4.88 0h-9.76m-4.87.02h-9.76m-4.88 0h-9.78m-4.88 0h-9.76m-4.88 0h-9.76m-4.9 0h-9.75m-4.9 0h-9.75m-4.88 0h-9.76m-4.88.02h-9.76m-4.88 0H1126l-.94-.07-.9-.22-.88-.36-.8-.5-.72-.6-.6-.72-.5-.8-.37-.87-.23-.92v-5.05m0-5.03v-10.1m0-5.04v-10.1m0-5.04v-10.1m0-5.05v-10.1m-.02-5.04v-10.1m0-5.03v-10.1m0-5.04v-10.1m0-5.04V382m0-5.05l-.02-10.1m0-5.04v-10.1m0-5.03v-10.1m0-5.04v-10.1m0-5.04v-10.1m-.02-5.05v-10.1m0-5.05V276m0-5.04v-10.1m0-5.04v-5.04l.07-.94.22-.92.35-.87.5-.8.6-.7.72-.63.8-.5.88-.35.9-.22h4.9" stroke="#3a414a" fill="none"/><use xlink:href="#a" transform="matrix(1,0,0,1,1132,256.7777777777777) translate(77.99348958333333 17.7734375)"/><use xlink:href="#b" transform="matrix(1,0,0,1,1132,256.7777777777777) translate(118 39.99565972222222)"/><use xlink:href="#b" transform="matrix(1,0,0,1,1132,256.7777777777777) translate(118 62.21788194444444)"/><use xlink:href="#b" transform="matrix(1,0,0,1,1132,256.7777777777777) translate(118 84.44010416666666)"/><use xlink:href="#b" transform="matrix(1,0,0,1,1132,256.7777777777777) translate(118 106.66232638888889)"/><use xlink:href="#b" transform="matrix(1,0,0,1,1132,256.7777777777777) translate(118 128.88454861111111)"/><use xlink:href="#b" transform="matrix(1,0,0,1,1132,256.7777777777777) translate(118 151.10677083333334)"/><use xlink:href="#b" transform="matrix(1,0,0,1,1132,256.7777777777777) translate(118 173.32899305555557)"/><use xlink:href="#b" transform="matrix(1,0,0,1,1132,256.7777777777777) translate(118 195.5512152777778)"/><use xlink:href="#b" transform="matrix(1,0,0,1,1132,256.7777777777777) translate(118 217.77343750000003)"/><use xlink:href="#c" transform="matrix(1,0,0,1,1132,256.7777777777777) translate(118 239.99565972222226)"/><path d="M660 250.78a6 6 0 0 1 6-6h428a6 6 0 0 1 6 6v256.44a6 6 0 0 1-6 6H666a6 6 0 0 1-6-6z" fill="#fbf0ff"/><path d="M674.92 244.85h9.86m4.93 0h9.87m4.93 0h9.86m4.94 0h9.86m4.93 0h9.85m4.93 0h9.86m4.93-.02h9.86m4.93 0h9.86m4.93 0h9.86m4.94 0h9.86m4.93 0h9.86m4.92 0h9.86m4.93 0h9.87m4.93 0h9.87m4.93-.02h9.86m4.93 0h9.85m4.93 0h9.86m4.93 0h9.86m4.93 0h9.86m4.93 0h9.86m4.94 0h9.86m4.93 0h9.86m4.92 0h9.86m4.93 0h9.88m4.93 0h9.87m4.93 0l9.86-.02m4.93 0h9.85m4.93 0h9.86m4.93 0h4.93l.94.07.9.22.88.36.8.5.72.6.6.72.5.8.37.87.23.92v5.05m0 5.03v10.1m0 5.04v10.1m0 5.04v10.1m0 5.05v10.1m.02 5.04v10.1m0 5.03v10.1m0 5.04v10.1m0 5.04V376m0 5.05l.02 10.1m0 5.04v10.1m0 5.03v10.1m0 5.04v10.1m0 5.04v10.1m.02 5.05v10.1m0 5.05V482m0 5.04v10.1m0 5.04v5.04l-.07.94-.22.92-.35.87-.5.8-.6.7-.72.63-.8.5-.88.35-.9.22H1090m-4.92 0h-9.86m-4.93 0h-9.87m-4.93 0h-9.86m-4.94 0h-9.86m-4.93 0h-9.85m-4.93 0h-9.86m-4.93.02h-9.86m-4.93 0h-9.86m-4.93 0h-9.86m-4.94 0h-9.86m-4.93 0h-9.86m-4.92 0h-9.86m-4.93 0h-9.87m-4.93 0h-9.87m-4.93.02h-9.86m-4.93 0h-9.85m-4.93 0h-9.86m-4.93 0h-9.86m-4.93 0h-9.86m-4.93 0h-9.86m-4.94 0h-9.86m-4.93 0h-9.86m-4.92 0h-9.86m-4.93 0H735m-4.93 0h-9.87m-4.93 0l-9.86.02m-4.93 0h-9.85m-4.93 0h-9.86m-4.93 0H666l-.94-.07-.9-.22-.88-.36-.8-.5-.72-.6-.6-.72-.5-.8-.37-.87-.23-.92v-5.05m0-5.03v-10.1m0-5.04v-10.1m0-5.04v-10.1m0-5.05v-10.1m-.02-5.04v-10.1m0-5.03v-10.1m0-5.04v-10.1m0-5.04V382m0-5.05l-.02-10.1m0-5.04v-10.1m0-5.03v-10.1m0-5.04v-10.1m0-5.04v-10.1m-.02-5.05v-10.1m0-5.05V276m0-5.04v-10.1m0-5.04v-5.04l.07-.94.22-.92.35-.87.5-.8.6-.7.72-.63.8-.5.88-.35.9-.22H670" stroke="#3a414a" fill="none"/><use xlink:href="#d" transform="matrix(1,0,0,1,672,256.7777777777777) translate(167.99348958333331 17.7734375)"/><use xlink:href="#b" transform="matrix(1,0,0,1,672,256.7777777777777) translate(208 39.99565972222222)"/><use xlink:href="#b" transform="matrix(1,0,0,1,672,256.7777777777777) translate(208 62.21788194444444)"/><use xlink:href="#b" transform="matrix(1,0,0,1,672,256.7777777777777) translate(208 84.44010416666666)"/><use xlink:href="#b" transform="matrix(1,0,0,1,672,256.7777777777777) translate(208 106.66232638888889)"/><use xlink:href="#b" transform="matrix(1,0,0,1,672,256.7777777777777) translate(208 128.88454861111111)"/><use xlink:href="#b" transform="matrix(1,0,0,1,672,256.7777777777777) translate(208 151.10677083333334)"/><use xlink:href="#b" transform="matrix(1,0,0,1,672,256.7777777777777) translate(208 173.32899305555557)"/><use xlink:href="#b" transform="matrix(1,0,0,1,672,256.7777777777777) translate(208 195.5512152777778)"/><use xlink:href="#b" transform="matrix(1,0,0,1,672,256.7777777777777) translate(208 217.77343750000003)"/><use xlink:href="#c" transform="matrix(1,0,0,1,672,256.7777777777777) translate(208 239.99565972222226)"/><path d="M380 250.78a6 6 0 0 1 6-6h248a6 6 0 0 1 6 6v256.44a6 6 0 0 1-6 6H386a6 6 0 0 1-6-6z" fill="#d7faf5"/><path d="M394.82 244.85h9.77m4.87 0h9.76m4.88 0h9.77m4.88 0l9.77-.02m4.88 0h9.76m4.88 0h9.76m4.88 0h9.77m4.88 0h9.76m4.87-.02h9.76m4.88 0h9.78m4.88 0h9.76m4.88 0h9.76m4.9 0h9.75m4.9 0h9.75m4.88 0h9.76m4.88-.02h9.76m4.88 0H634l.94.07.9.22.88.36.8.5.72.6.6.72.5.8.37.87.23.92v5.05m0 5.03v10.1m0 5.04v10.1m0 5.04v10.1m0 5.05v10.1m.02 5.04v10.1m0 5.03v10.1m0 5.04v10.1m0 5.04V376m0 5.05l.02 10.1m0 5.04v10.1m0 5.03v10.1m0 5.04v10.1m0 5.04v10.1m.02 5.05v10.1m0 5.05V482m0 5.04v10.1m0 5.04v5.04l-.07.94-.22.92-.35.87-.5.8-.6.7-.72.63-.8.5-.88.35-.9.22h-4.9m-4.87 0h-9.77m-4.87 0h-9.76m-4.88 0h-9.77m-4.88 0l-9.77.02m-4.88 0h-9.76m-4.88 0h-9.76m-4.88 0h-9.77m-4.88 0h-9.76m-4.87.02h-9.76m-4.88 0h-9.78m-4.88 0h-9.76m-4.88 0h-9.76m-4.9 0h-9.75m-4.9 0h-9.75m-4.88 0h-9.76m-4.88.02h-9.76m-4.88 0H386l-.94-.07-.9-.22-.88-.36-.8-.5-.72-.6-.6-.72-.5-.8-.37-.87-.23-.92v-5.05m0-5.03v-10.1m0-5.04v-10.1m0-5.04v-10.1m0-5.05v-10.1m-.02-5.04v-10.1m0-5.03v-10.1m0-5.04v-10.1m0-5.04V382m0-5.05l-.02-10.1m0-5.04v-10.1m0-5.03v-10.1m0-5.04v-10.1m0-5.04v-10.1m-.02-5.05v-10.1m0-5.05V276m0-5.04v-10.1m0-5.04v-5.04l.07-.94.22-.92.35-.87.5-.8.6-.7.72-.63.8-.5.88-.35.9-.22h4.9" stroke="#3a414a" fill="none"/><g><use xlink:href="#e" transform="matrix(1,0,0,1,392,256.77777777777777) translate(84.66124131944444 17.7734375)"/><use xlink:href="#b" transform="matrix(1,0,0,1,392,256.77777777777777) translate(118 39.99565972222222)"/><use xlink:href="#b" transform="matrix(1,0,0,1,392,256.77777777777777) translate(118 62.21788194444444)"/><use xlink:href="#b" transform="matrix(1,0,0,1,392,256.77777777777777) translate(118 84.44010416666666)"/><use xlink:href="#b" transform="matrix(1,0,0,1,392,256.77777777777777) translate(118 106.66232638888889)"/><use xlink:href="#b" transform="matrix(1,0,0,1,392,256.77777777777777) translate(118 128.88454861111111)"/><use xlink:href="#b" transform="matrix(1,0,0,1,392,256.77777777777777) translate(118 151.10677083333334)"/><use xlink:href="#b" transform="matrix(1,0,0,1,392,256.77777777777777) translate(118 173.32899305555557)"/><use xlink:href="#b" transform="matrix(1,0,0,1,392,256.77777777777777) translate(118 195.5512152777778)"/><use xlink:href="#b" transform="matrix(1,0,0,1,392,256.77777777777777) translate(118 217.77343750000003)"/><use xlink:href="#c" transform="matrix(1,0,0,1,392,256.77777777777777) translate(118 239.99565972222226)"/></g><path d="M680 295.1a6 6 0 0 1 6-6h388a6 6 0 0 1 6 6v189.8a6 6 0 0 1-6 6H686a6 6 0 0 1-6-6z" stroke="#3a414a" fill="#fff"/><g><use xlink:href="#f" transform="matrix(1,0,0,1,692,301.1111111111111) translate(188 17.7734375)"/><use xlink:href="#g" transform="matrix(1,0,0,1,692,301.1111111111111) translate(141.32573784722223 39.99565972222222)"/><use xlink:href="#b" transform="matrix(1,0,0,1,692,301.1111111111111) translate(188 62.21788194444444)"/><use xlink:href="#b" transform="matrix(1,0,0,1,692,301.1111111111111) translate(188 84.44010416666666)"/><use xlink:href="#b" transform="matrix(1,0,0,1,692,301.1111111111111) translate(188 106.66232638888889)"/><use xlink:href="#b" transform="matrix(1,0,0,1,692,301.1111111111111) translate(188 128.88454861111111)"/><use xlink:href="#b" transform="matrix(1,0,0,1,692,301.1111111111111) translate(188 151.10677083333334)"/><use xlink:href="#c" transform="matrix(1,0,0,1,692,301.1111111111111) translate(188 173.32899305555557)"/></g><path d="M828 360c17.67 0 32 17.9 32 40s-14.33 40-32 40h-96c-17.67 0-32-17.9-32-40s14.33-40 32-40z" stroke="#3a414a" fill="#fff"/><g><use xlink:href="#h" transform="matrix(1,0,0,1,705,365) translate(21.6579861111111 41.8359375)"/></g><path d="M1028 360c17.67 0 32 17.9 32 40s-14.33 40-32 40h-96c-17.67 0-32-17.9-32-40s14.33-40 32-40z" stroke="#3a414a" fill="#fff"/><g><use xlink:href="#i" transform="matrix(1,0,0,1,905,365) translate(8.322482638888872 41.8359375)"/></g><path d="M1140 346a6 6 0 0 1 6-6h208a6 6 0 0 1 6 6v108a6 6 0 0 1-6 6h-208a6 6 0 0 1-6-6z" stroke="#3a414a" fill="#fff"/><g><use xlink:href="#j" transform="matrix(1,0,0,1,1152,352) translate(44.6579861111111 53.7734375)"/></g><path d="M400 356a6 6 0 0 1 6-6h208a6 6 0 0 1 6 6v88a6 6 0 0 1-6 6H406a6 6 0 0 1-6-6z" stroke="#3a414a" fill="#fff"/><g><use xlink:href="#k" transform="matrix(1,0,0,1,405,355) translate(58.325737847222214 51.5234375)"/></g><path d="M636.85 400h46.27" stroke="#3a414a" fill="none"/><path d="M622.08 400l14.27-4.64v9.28zM697.88 400l-14.26 4.64v-9.28z" stroke="#3a414a" fill="#3a414a"/><path d="M1123.15 400h-46.27" stroke="#3a414a" fill="none"/><path d="M1137.92 400l-14.27 4.64v-9.28zM1062.12 400l14.26-4.64v9.28z" stroke="#3a414a" fill="#3a414a"/><defs><path fill="#3a414a" d="M650-1214c-281 0-336 244-336 533 0 295 60 546 347 546 188 0 263-142 322-282l159 65C1058-155 935 20 659 20c-401 0-546-295-546-701 0-407 135-689 536-689 264 0 391 146 466 335l-168 65c-47-129-127-244-297-244" id="l"/><path fill="#3a414a" d="M736-142h380V0H134v-142h422v-1200H267v-142h469v1342" id="m"/><path fill="#3a414a" d="M745-142h380V0H143v-142h422v-798H246v-142h499v940zM545-1292v-192h200v192H545" id="n"/><path fill="#3a414a" d="M617-1102c355 0 481 238 477 599H322c5 222 84 388 301 388 144 0 244-59 284-166l158 45C1002-72 854 20 623 20c-342 0-490-220-490-568 0-346 151-554 484-554zm291 461c-18-192-90-328-289-328-194 0-287 128-295 328h584" id="o"/><path fill="#3a414a" d="M706-1102c241 0 344 136 343 381V0H868v-695c1-168-57-273-220-268-190 6-283 138-283 336V0H185c-3-360 6-732-6-1082h170c4 54 7 126 8 185h3c63-121 164-204 346-205" id="p"/><path fill="#3a414a" d="M682 16c-209 0-323-80-324-285v-671H190v-142h170l58-282h120v282h432v142H538v652c2 114 60 155 182 155 106 0 209-16 297-34v137C921-4 806 16 682 16" id="q"/><g id="a"><use transform="matrix(0.010850694444444444,0,0,0.010850694444444444,0,0)" xlink:href="#l"/><use transform="matrix(0.010850694444444444,0,0,0.010850694444444444,13.335503472222221,0)" xlink:href="#m"/><use transform="matrix(0.010850694444444444,0,0,0.010850694444444444,26.671006944444443,0)" xlink:href="#n"/><use transform="matrix(0.010850694444444444,0,0,0.010850694444444444,40.006510416666664,0)" xlink:href="#o"/><use transform="matrix(0.010850694444444444,0,0,0.010850694444444444,53.342013888888886,0)" xlink:href="#p"/><use transform="matrix(0.010850694444444444,0,0,0.010850694444444444,66.67751736111111,0)" xlink:href="#q"/></g><path fill="#3a414a" d="M875 0v-623H353V0H162v-1349h191v566h522v-566h191V0H875" id="r"/><path fill="#3a414a" d="M839-1102c70 0 148 7 206 17v167c-112-18-268-36-363 15-129 69-208 203-208 395V0H294c-10-367 32-789-52-1082h171c21 75 41 161 48 250h5c67-152 152-270 373-270" id="s"/><path fill="#3a414a" d="M615-1102c343 0 484 203 482 560-1 347-147 562-488 562-336 0-475-219-479-562-4-349 156-560 485-560zm-8 989c240 0 301-180 301-429 0-245-55-427-290-427-236 0-299 181-299 427 0 243 61 429 288 429" id="t"/><path fill="#3a414a" d="M914 0L548-499l-132 98V0H236v-1484h180v927l475-525h211L663-617 1125 0H914" id="u"/><path fill="#3a414a" d="M528 20c-247 0-343-132-343-381v-721h180v686c-4 177 45 284 224 277 194-8 279-136 279-336v-627h181c3 360-6 732 6 1082H885c-4-54-7-126-8-185h-3C809-64 714 20 528 20" id="v"/><g id="d"><use transform="matrix(0.010850694444444444,0,0,0.010850694444444444,0,0)" xlink:href="#r"/><use transform="matrix(0.010850694444444444,0,0,0.010850694444444444,13.335503472222221,0)" xlink:href="#o"/><use transform="matrix(0.010850694444444444,0,0,0.010850694444444444,26.671006944444443,0)" xlink:href="#s"/><use transform="matrix(0.010850694444444444,0,0,0.010850694444444444,40.006510416666664,0)" xlink:href="#t"/><use transform="matrix(0.010850694444444444,0,0,0.010850694444444444,53.342013888888886,0)" xlink:href="#u"/><use transform="matrix(0.010850694444444444,0,0,0.010850694444444444,66.67751736111111,0)" xlink:href="#v"/></g><path fill="#3a414a" d="M1034 0L896-382H333L196 0H0l510-1349h217L1228 0h-194zM847-531c-77-225-157-447-231-674-69 231-154 451-232 674h463" id="w"/><path fill="#3a414a" d="M1000-272c3 95 12 159 101 161 21 0 41-3 59-7V-6c-44 10-86 16-139 16-141 2-191-84-197-217h-6C748-76 648 20 446 20c-207 0-318-120-318-322 0-266 194-348 454-354l236-4c12-191-40-305-222-305-140 0-220 47-232 172l-188-17c33-204 181-292 423-292 255 0 401 118 401 364v466zm-683-27c0 109 63 184 175 182 166-3 259-96 306-217 24-65 20-120 20-200-232 7-501-28-501 235" id="x"/><path fill="#3a414a" d="M873-819c-18-114-119-146-250-146-163 0-245 50-245 151 0 151 170 148 294 185 182 54 388 94 388 320 0 240-189 325-439 329-245 4-410-69-454-268l159-31c24 133 136 168 295 165 144-2 270-31 270-171 0-164-195-160-331-202-167-52-350-87-350-299 0-218 173-315 413-313 220 2 373 77 412 260" id="y"/><g id="e"><use transform="matrix(0.010850694444444444,0,0,0.010850694444444444,0,0)" xlink:href="#w"/><use transform="matrix(0.010850694444444444,0,0,0.010850694444444444,13.335503472222221,0)" xlink:href="#q"/><use transform="matrix(0.010850694444444444,0,0,0.010850694444444444,26.671006944444443,0)" xlink:href="#m"/><use transform="matrix(0.010850694444444444,0,0,0.010850694444444444,40.006510416666664,0)" xlink:href="#x"/><use transform="matrix(0.010850694444444444,0,0,0.010850694444444444,53.342013888888886,0)" xlink:href="#y"/></g><path fill="#3a414a" d="M912-211c-10-84-18-177-18-274v-864h172V0H836L316-1130c7 79 16 167 16 254V0H162v-1349h222" id="z"/><path fill="#3a414a" d="M865-914c-3-187-2-380-2-570h180v1261c0 76 1 155 6 223H877c-8-49-9-116-10-174h-5C801-44 708 26 530 26c-135 0-234-46-297-139s-95-232-95-419c0-377 131-566 392-566 176 0 271 63 335 184zm-286-51c-222 0-255 197-255 427 0 229 31 425 253 425 237 0 286-195 286-441 0-238-52-411-284-411" id="A"/><path fill="#3a414a" d="M496 0v-299h235V0H496" id="B"/><path fill="#3a414a" d="M390 276c167 0 266-82 266-251v-965H249v-142h587V28c-4 270-165 397-431 397-107 0-208-16-288-43V242c80 18 173 34 273 34zm246-1568v-192h200v192H636" id="C"/><g id="g"><use transform="matrix(0.010850694444444444,0,0,0.010850694444444444,0,0)" xlink:href="#z"/><use transform="matrix(0.010850694444444444,0,0,0.010850694444444444,13.335503472222221,0)" xlink:href="#t"/><use transform="matrix(0.010850694444444444,0,0,0.010850694444444444,26.671006944444443,0)" xlink:href="#A"/><use transform="matrix(0.010850694444444444,0,0,0.010850694444444444,40.006510416666664,0)" xlink:href="#o"/><use transform="matrix(0.010850694444444444,0,0,0.010850694444444444,53.342013888888886,0)" xlink:href="#B"/><use transform="matrix(0.010850694444444444,0,0,0.010850694444444444,66.67751736111111,0)" xlink:href="#C"/><use transform="matrix(0.010850694444444444,0,0,0.010850694444444444,80.01302083333334,0)" xlink:href="#y"/></g><path fill="#3a414a" d="M285-1169c8 382 2 780 4 1169H129v-1349h237c86 239 188 461 253 720 69-258 169-481 255-720h225V0H937c2-390-5-788 6-1169-75 255-170 488-259 729H547c-90-240-185-475-262-729" id="D"/><path fill="#3a414a" d="M1048-32c-2 300-135 456-433 456-222-1-358-88-400-267l184-25c22 99 100 157 222 156 184-2 248-125 248-315 0-64 3-133-2-194C807-100 706-13 524-12c-306 0-381-228-381-537 0-318 85-550 400-550 164 0 271 83 325 202h3c1-60 3-134 12-185h171c-13 339-4 702-6 1050zM585-145c210-8 284-178 284-406 0-192-52-331-177-392-33-16-69-22-104-22-223 2-259 184-259 414 0 229 31 415 256 406" id="E"/><g id="h"><use transform="matrix(0.010850694444444444,0,0,0.010850694444444444,0,0)" xlink:href="#D"/><use transform="matrix(0.010850694444444444,0,0,0.010850694444444444,13.335503472222221,0)" xlink:href="#t"/><use transform="matrix(0.010850694444444444,0,0,0.010850694444444444,26.671006944444443,0)" xlink:href="#p"/><use transform="matrix(0.010850694444444444,0,0,0.010850694444444444,40.006510416666664,0)" xlink:href="#E"/><use transform="matrix(0.010850694444444444,0,0,0.010850694444444444,53.342013888888886,0)" xlink:href="#t"/><use transform="matrix(0.010850694444444444,0,0,0.010850694444444444,66.67751736111111,0)" xlink:href="#t"/><use transform="matrix(0.010850694444444444,0,0,0.010850694444444444,80.01302083333334,0)" xlink:href="#y"/><use transform="matrix(0.010850694444444444,0,0,0.010850694444444444,93.34852430555557,0)" xlink:href="#o"/></g><path fill="#3a414a" d="M162 0v-1349h919v156H353v422h668v154H353v461h769V0H162" id="F"/><path fill="#3a414a" d="M932 0L611-444 288 0H94l415-556-397-526h199l300 421 298-421h201L713-558 1133 0H932" id="G"/><path fill="#3a414a" d="M698-1104c312 3 392 244 392 558 0 315-82 566-392 566-169 0-277-65-331-184h-5c8 188 2 394 4 589H185V-858c0-76-1-156-6-224h175c6 52 9 120 10 178h4c58-122 150-202 330-200zm-49 991c225 0 255-203 255-433 0-225-32-419-253-419-236 0-285 192-285 441 0 237 53 411 283 411" id="H"/><g id="i"><use transform="matrix(0.010850694444444444,0,0,0.010850694444444444,0,0)" xlink:href="#F"/><use transform="matrix(0.010850694444444444,0,0,0.010850694444444444,13.335503472222221,0)" xlink:href="#G"/><use transform="matrix(0.010850694444444444,0,0,0.010850694444444444,26.671006944444443,0)" xlink:href="#H"/><use transform="matrix(0.010850694444444444,0,0,0.010850694444444444,40.006510416666664,0)" xlink:href="#s"/><use transform="matrix(0.010850694444444444,0,0,0.010850694444444444,53.342013888888886,0)" xlink:href="#o"/><use transform="matrix(0.010850694444444444,0,0,0.010850694444444444,66.67751736111111,0)" xlink:href="#y"/><use transform="matrix(0.010850694444444444,0,0,0.010850694444444444,80.01302083333334,0)" xlink:href="#y"/><use transform="matrix(0.010850694444444444,0,0,0.010850694444444444,93.34852430555557,0)" xlink:href="#B"/><use transform="matrix(0.010850694444444444,0,0,0.010850694444444444,106.6840277777778,0)" xlink:href="#C"/><use transform="matrix(0.010850694444444444,0,0,0.010850694444444444,120.01953125000003,0)" xlink:href="#y"/></g><path fill="#3a414a" d="M1121-976c0 225-142 341-344 379L1177 0H957L591-575H353V0H162v-1349h482c281 3 477 100 477 373zM633-726c181-1 296-73 296-247 0-149-101-223-304-223H353v470h280" id="I"/><path fill="#3a414a" d="M631 20c-350 0-501-215-501-562 0-355 162-560 502-560 250 0 399 118 446 323l-192 14c-23-124-109-196-262-196-242 0-305 171-305 415 1 245 61 427 304 427 151 0 248-77 267-215l190 12C1039-107 883 20 631 20" id="J"/><g id="j"><use transform="matrix(0.010850694444444444,0,0,0.010850694444444444,0,0)" xlink:href="#I"/><use transform="matrix(0.010850694444444444,0,0,0.010850694444444444,13.335503472222221,0)" xlink:href="#o"/><use transform="matrix(0.010850694444444444,0,0,0.010850694444444444,26.671006944444443,0)" xlink:href="#x"/><use transform="matrix(0.010850694444444444,0,0,0.010850694444444444,40.006510416666664,0)" xlink:href="#J"/><use transform="matrix(0.010850694444444444,0,0,0.010850694444444444,53.342013888888886,0)" xlink:href="#q"/><use transform="matrix(0.010850694444444444,0,0,0.010850694444444444,66.67751736111111,0)" xlink:href="#B"/><use transform="matrix(0.010850694444444444,0,0,0.010850694444444444,80.01302083333334,0)" xlink:href="#C"/><use transform="matrix(0.010850694444444444,0,0,0.010850694444444444,93.34852430555557,0)" xlink:href="#y"/></g><path fill="#3a414a" d="M473-1349c438-1 655 221 652 661C1122-268 945-8 532 0H162v-1349h311zm42 1193c308-4 416-205 418-532 2-330-131-509-459-505H353v1037h162" id="K"/><path fill="#3a414a" d="M802-711c201 25 350 118 350 331C1152-95 921 0 634 0H162v-1349c401 9 908-74 908 327 0 184-111 275-268 311zm-224-69c174-2 300-51 300-218 0-163-124-198-302-198H353v416h225zM353-153c281-2 612 44 606-244-5-271-329-233-606-234v478" id="L"/><g id="k"><use transform="matrix(0.010850694444444444,0,0,0.010850694444444444,0,0)" xlink:href="#D"/><use transform="matrix(0.010850694444444444,0,0,0.010850694444444444,13.335503472222221,0)" xlink:href="#t"/><use transform="matrix(0.010850694444444444,0,0,0.010850694444444444,26.671006944444443,0)" xlink:href="#p"/><use transform="matrix(0.010850694444444444,0,0,0.010850694444444444,40.006510416666664,0)" xlink:href="#E"/><use transform="matrix(0.010850694444444444,0,0,0.010850694444444444,53.342013888888886,0)" xlink:href="#t"/><use transform="matrix(0.010850694444444444,0,0,0.010850694444444444,66.67751736111111,0)" xlink:href="#K"/><use transform="matrix(0.010850694444444444,0,0,0.010850694444444444,80.01302083333334,0)" xlink:href="#L"/></g></defs></g></svg>